<?xml version="1.0" standalone="no"?>
<!DOCTYPE svg PUBLIC "-//W3C//DTD SVG 20010904//EN"
 "http://www.w3.org/TR/2001/REC-SVG-20010904/DTD/svg10.dtd">
<svg version="1.0" xmlns="http://www.w3.org/2000/svg"
 width="700.000000pt" height="700.000000pt" viewBox="0 0 700.000000 700.000000"
 preserveAspectRatio="xMidYMid meet">
<metadata>
Created by potrace 1.14, written by Peter Selinger 2001-2017
</metadata>
<g transform="translate(0.000000,700.000000) scale(0.100000,-0.100000)"
fill="#000000" stroke="none">
<path d="M0 3500 l0 -3500 3500 0 3500 0 0 3500 0 3500 -3500 0 -3500 0 0
-3500z m2950 1947 c0 -1006 1 -1047 20 -1121 56 -220 231 -403 452 -472 72
-22 124 -12 247 47 68 33 101 58 171 128 99 98 149 184 180 307 19 74 20 115
20 1116 l0 1038 785 0 786 0 -4 -937 c-3 -847 -5 -947 -21 -1027 -53 -267
-152 -461 -318 -622 -208 -201 -468 -319 -852 -384 -66 -11 -121 -22 -123 -24
-2 -2 33 -9 79 -15 544 -79 936 -324 1113 -696 41 -88 79 -206 101 -321 16
-80 18 -180 21 -1020 l4 -931 -92 -6 c-51 -4 -404 -7 -786 -7 l-693 0 0 1033
c0 1161 3 1106 -75 1265 -76 153 -207 269 -373 329 -94 35 -152 29 -262 -24
-180 -88 -308 -241 -366 -438 -17 -55 -18 -140 -21 -1106 l-4 -1046 -172 -6
c-95 -4 -445 -7 -779 -7 l-608 0 0 913 c0 989 1 1011 56 1202 81 281 256 504
518 658 154 90 421 176 648 210 l93 14 -50 7 c-385 57 -692 184 -907 376 -126
112 -250 318 -302 502 -55 191 -56 220 -56 1202 l0 906 785 0 785 0 0 -1043z"/>
</g>
</svg>
